<svg width="153" height="71" viewBox="0 0 153 71" fill="none" xmlns="http://www.w3.org/2000/svg">
<path d="M53.2275 55.44H15.2293C14.7135 55.44 14.2836 55.0148 14.2836 54.5046V17.1156C14.2836 16.6054 14.7135 16.1802 15.2293 16.1802H52.2246C52.6544 16.1802 53.0556 16.4636 53.1416 16.8888C53.2275 17.314 53.0269 17.7392 52.6544 17.9377L16.3755 35.8243L53.5141 54.1361C53.8007 54.2778 53.9726 54.5896 53.8866 54.9298C53.8293 55.2416 53.5428 55.44 53.2275 55.44ZM15.4585 54.3062H51.2216L15.4585 36.6463V54.3062ZM15.4585 17.3424V34.9739L51.2216 17.3424H15.4585Z" fill="#262626"/>
<path d="M34.3265 70.6533C15.3906 70.6533 0 55.0246 0 35.7959C0 16.5672 15.3906 0.967041 34.3265 0.967041C53.2623 0.967041 68.653 16.5957 68.653 35.8244C68.653 55.0532 53.2342 70.6533 34.3265 70.6533ZM34.3265 2.50991C16.2347 2.50991 1.51937 17.4529 1.51937 35.8244C1.51937 54.196 16.2347 69.1104 34.2983 69.1104C52.362 69.1104 67.1055 54.1674 67.1055 35.8244C67.1055 17.4815 52.3901 2.50991 34.3265 2.50991Z" fill="#262626"/>
<path d="M106.716 34.3357C106.05 34.679 105.233 34.822 104.234 34.822C102.932 34.822 101.903 34.4216 101.146 33.6493C100.39 32.8771 99.996 31.8475 99.996 30.589C99.996 29.2162 100.42 28.1294 101.298 27.2999C102.175 26.4705 103.265 26.0415 104.597 26.0415C105.445 26.0415 106.171 26.1559 106.716 26.3847V27.5288C106.08 27.1855 105.354 27.0139 104.597 27.0139C103.598 27.0139 102.781 27.3285 102.145 27.9578C101.51 28.587 101.207 29.445 101.207 30.5032C101.207 31.5329 101.51 32.3337 102.085 32.9343C102.66 33.5349 103.447 33.8209 104.385 33.8209C105.263 33.8209 106.05 33.6207 106.716 33.2489V34.3357Z" fill="#262626"/>
<path d="M114.163 34.6791H113.043V31.1898C113.043 29.96 112.559 29.3594 111.59 29.3594C111.106 29.3594 110.682 29.531 110.379 29.9028C110.046 30.246 109.895 30.7036 109.895 31.247V34.6791H108.744V25.6985H109.895V29.6168H109.925C110.409 28.8446 111.106 28.4728 112.014 28.4728C113.467 28.4728 114.193 29.3022 114.193 30.961V34.6791H114.163Z" fill="#262626"/>
<path d="M121.67 31.9333H117.19C117.22 32.5911 117.402 33.0774 117.765 33.4206C118.128 33.7638 118.612 33.964 119.248 33.964C119.975 33.964 120.64 33.7352 121.216 33.3062V34.2786C120.64 34.6504 119.914 34.8506 118.976 34.8506C118.037 34.8506 117.311 34.5646 116.796 34.0212C116.281 33.4778 116.009 32.7055 116.009 31.7045C116.009 30.7893 116.281 30.0171 116.857 29.4165C117.432 28.8158 118.128 28.5012 118.976 28.5012C119.823 28.5012 120.459 28.7586 120.943 29.2734C121.428 29.7883 121.639 30.5033 121.639 31.4185V31.9333H121.67ZM120.55 31.0753C120.55 30.5319 120.398 30.1029 120.126 29.7883C119.853 29.5023 119.46 29.3306 118.976 29.3306C118.522 29.3306 118.128 29.5023 117.795 29.8169C117.462 30.1315 117.25 30.5605 117.159 31.0753H120.55Z" fill="#262626"/>
<path d="M128.995 34.679H127.875V31.2183C127.875 29.9599 127.391 29.3593 126.422 29.3593C125.908 29.3593 125.514 29.5309 125.181 29.8741C124.848 30.2173 124.697 30.6749 124.697 31.2183V34.679H123.547V28.6157H124.697V29.6167H124.727C125.211 28.8445 125.908 28.4727 126.846 28.4727C127.542 28.4727 128.087 28.6729 128.45 29.1019C128.814 29.5309 128.995 30.1601 128.995 30.9609V34.679Z" fill="#262626"/>
<path d="M136.866 34.1642C136.866 36.4237 135.716 37.5391 133.415 37.5391C132.628 37.5391 131.932 37.3961 131.326 37.1101V36.0805C132.053 36.4523 132.719 36.6525 133.385 36.6525C134.959 36.6525 135.716 35.8803 135.716 34.3358V33.7066H135.685C135.201 34.4788 134.475 34.8506 133.506 34.8506C132.689 34.8506 132.053 34.5646 131.569 34.0212C131.084 33.4778 130.842 32.7628 130.842 31.8476C130.842 30.8179 131.114 29.9885 131.629 29.3879C132.174 28.7873 132.87 28.4727 133.778 28.4727C134.626 28.4727 135.262 28.7873 135.685 29.4451H135.716V28.6157H136.866V34.1642ZM135.716 31.0753C135.716 30.6177 135.564 30.2173 135.231 29.8741C134.898 29.5309 134.475 29.3593 133.99 29.3593C133.385 29.3593 132.9 29.5881 132.537 30.0171C132.204 30.4461 132.023 31.0467 132.023 31.7904C132.023 32.4482 132.174 32.963 132.507 33.3634C132.84 33.7638 133.294 33.964 133.839 33.964C134.384 33.964 134.838 33.7638 135.201 33.392C135.564 33.0202 135.716 32.534 135.716 31.9334V31.0753Z" fill="#262626"/>
<path d="M145.826 34.6793H144.222L140.831 30.8182C140.71 30.6752 140.65 30.5893 140.589 30.5035H140.559V34.6793H139.409V26.1848H140.559V30.1889H140.589C140.65 30.1031 140.741 29.9887 140.831 29.8743L144.101 26.1848H145.523L141.739 30.2747L145.826 34.6793Z" fill="#262626"/>
<path d="M146.613 31.7046C146.613 30.7035 146.916 29.9027 147.491 29.3307C148.096 28.7587 148.883 28.4727 149.912 28.4727C150.881 28.4727 151.638 28.7587 152.183 29.3021C152.728 29.8455 153 30.6177 153 31.6187C153 32.5626 152.697 33.3634 152.122 33.9354C151.547 34.536 150.76 34.822 149.761 34.822C148.792 34.822 148.036 34.536 147.46 33.964C146.885 33.392 146.613 32.6484 146.613 31.7046ZM147.763 31.676C147.763 32.3624 147.945 32.9344 148.308 33.3348C148.671 33.7352 149.186 33.9354 149.822 33.9354C150.457 33.9354 150.972 33.7352 151.305 33.3348C151.638 32.9344 151.819 32.391 151.819 31.6474C151.819 30.9037 151.638 30.3317 151.305 29.9599C150.972 29.5595 150.457 29.3593 149.822 29.3593C149.186 29.3593 148.671 29.5595 148.308 29.9885C147.945 30.3889 147.763 30.9609 147.763 31.676Z" fill="#262626"/>
<path d="M83.8919 47.0919C83.2259 47.4351 82.4086 47.5781 81.4097 47.5781C80.1081 47.5781 79.0788 47.1777 78.3221 46.4054C77.5653 45.6332 77.1718 44.6036 77.1718 43.3451C77.1718 41.9723 77.5956 40.8855 78.4734 40.056C79.3513 39.2266 80.441 38.7976 81.7729 38.7976C82.6205 38.7976 83.347 38.912 83.8919 39.1408V40.2849C83.2562 39.9416 82.5297 39.77 81.7729 39.77C80.774 39.77 79.9567 40.0846 79.321 40.7139C78.6853 41.3717 78.3523 42.2011 78.3523 43.2879C78.3523 44.3176 78.6551 45.1184 79.2302 45.719C79.8053 46.3196 80.5924 46.6056 81.5308 46.6056C82.4086 46.6056 83.1957 46.4054 83.8616 46.0336V47.0919H83.8919Z" fill="#262626"/>
<path d="M85.466 44.4607C85.466 43.4596 85.7687 42.6588 86.3439 42.0868C86.9493 41.5148 87.7363 41.2288 88.7656 41.2288C89.7342 41.2288 90.491 41.5148 91.0359 42.0582C91.5807 42.6016 91.8532 43.3738 91.8532 44.3749C91.8532 45.3187 91.5505 46.1195 90.9753 46.6915C90.4002 47.2921 89.6131 47.5782 88.6142 47.5782C87.6455 47.5782 86.8888 47.2921 86.3136 46.7201C85.7687 46.1481 85.466 45.4045 85.466 44.4607ZM86.6466 44.4321C86.6466 45.1185 86.8282 45.6905 87.1915 46.0909C87.5547 46.4913 88.0693 46.6915 88.705 46.6915C89.3407 46.6915 89.8553 46.4913 90.1883 46.0909C90.5213 45.6905 90.7029 45.1471 90.7029 44.4035C90.7029 43.6598 90.5213 43.0878 90.1883 42.716C89.8553 42.3156 89.3407 42.1154 88.705 42.1154C88.0693 42.1154 87.5547 42.3156 87.1915 42.7446C86.8282 43.145 86.6466 43.717 86.6466 44.4321Z" fill="#262626"/>
<path d="M99.2694 47.4351H98.1493V43.9744C98.1493 42.716 97.665 42.1154 96.6963 42.1154C96.212 42.1154 95.7882 42.287 95.4552 42.6302C95.1223 42.9734 94.9709 43.431 94.9709 43.9744V47.4351H93.8206V41.3718H95.0012V42.3728C95.4855 41.6006 96.1817 41.2288 97.1201 41.2288C97.8164 41.2288 98.3612 41.429 98.7245 41.858C99.0877 42.287 99.2694 42.9162 99.2694 43.717V47.4351Z" fill="#262626"/>
<path d="M101.207 46.1195C101.782 46.5199 102.387 46.7201 103.053 46.7201C103.931 46.7201 104.385 46.4341 104.385 45.8907C104.385 45.6619 104.294 45.4617 104.082 45.3187C103.901 45.1757 103.507 44.9755 102.902 44.7753C102.175 44.5179 101.721 44.2319 101.509 43.9744C101.298 43.717 101.176 43.4024 101.176 43.002C101.176 42.4586 101.419 42.0296 101.903 41.715C102.387 41.4004 102.962 41.2288 103.689 41.2288C104.234 41.2288 104.748 41.3146 105.203 41.4862V42.5158C104.718 42.2298 104.173 42.0868 103.568 42.0868C103.205 42.0868 102.902 42.1726 102.69 42.3156C102.448 42.4586 102.357 42.6588 102.357 42.9162C102.357 43.145 102.448 43.3452 102.599 43.4882C102.751 43.6312 103.114 43.8028 103.689 44.003C104.415 44.2605 104.9 44.5179 105.142 44.7753C105.384 45.0327 105.505 45.3759 105.505 45.7763C105.505 46.3197 105.263 46.7773 104.779 47.0919C104.294 47.4065 103.659 47.5782 102.902 47.5782C102.236 47.5782 101.661 47.4637 101.146 47.2349V46.1195H101.207Z" fill="#262626"/>
<path d="M110.53 47.3779C110.288 47.4923 109.955 47.5781 109.531 47.5781C108.381 47.5781 107.806 46.9774 107.806 45.7762V42.2583H106.716V41.3717H107.806V39.913L108.926 39.5698V41.3717H110.53V42.2583H108.926V45.576C108.926 45.9764 108.986 46.2624 109.137 46.434C109.289 46.6056 109.531 46.6914 109.864 46.6914C110.106 46.6914 110.348 46.6342 110.53 46.4912V47.3779Z" fill="#262626"/>
<path d="M115.707 42.43C115.525 42.3156 115.253 42.2298 114.92 42.2298C114.465 42.2298 114.102 42.43 113.83 42.8018C113.557 43.2022 113.406 43.717 113.406 44.3462V47.4065H112.256V41.3717H113.406V42.6016H113.436C113.769 41.7149 114.314 41.2573 115.131 41.2573C115.404 41.2573 115.585 41.2859 115.737 41.3431V42.43H115.707Z" fill="#262626"/>
<path d="M122.487 47.4352H121.337V46.4914H121.306C120.883 47.235 120.217 47.5782 119.339 47.5782C117.825 47.5782 117.068 46.7202 117.068 45.0041V41.3718H118.188V44.8325C118.188 46.0624 118.673 46.6916 119.672 46.6916C120.156 46.6916 120.58 46.52 120.883 46.1768C121.185 45.8336 121.337 45.4045 121.337 44.8611V41.3718H122.487V47.4352Z" fill="#262626"/>
<path d="M129.328 47.1492C128.844 47.4352 128.239 47.5782 127.542 47.5782C126.604 47.5782 125.878 47.2922 125.302 46.7202C124.727 46.1481 124.455 45.4331 124.455 44.5179C124.455 43.5169 124.758 42.716 125.363 42.1154C125.968 41.5148 126.786 41.2002 127.815 41.2002C128.39 41.2002 128.905 41.286 129.328 41.4862V42.5444C128.874 42.2298 128.36 42.0868 127.815 42.0868C127.179 42.0868 126.634 42.287 126.241 42.716C125.817 43.1451 125.635 43.7171 125.635 44.4321C125.635 45.1185 125.817 45.6905 126.211 46.0623C126.604 46.4628 127.119 46.663 127.754 46.663C128.299 46.663 128.844 46.4914 129.328 46.1481V47.1492Z" fill="#262626"/>
<path d="M134.323 47.3779C134.081 47.4923 133.748 47.5781 133.324 47.5781C132.174 47.5781 131.598 46.9774 131.598 45.7762V42.2583H130.509V41.3717H131.598V39.913L132.719 39.5698V41.3717H134.323V42.2583H132.719V45.576C132.719 45.9764 132.779 46.2624 132.93 46.434C133.082 46.6056 133.324 46.6914 133.657 46.6914C133.899 46.6914 134.141 46.6342 134.323 46.4912V47.3779Z" fill="#262626"/>
<path d="M135.897 39.2267C135.897 39.0265 135.958 38.8835 136.109 38.7405C136.23 38.5975 136.412 38.5403 136.624 38.5403C136.836 38.5403 136.987 38.5975 137.138 38.7405C137.29 38.8549 137.35 39.0265 137.35 39.2267C137.35 39.4269 137.29 39.5699 137.138 39.7129C136.987 39.8273 136.836 39.9131 136.624 39.9131C136.412 39.9131 136.26 39.8559 136.109 39.7129C135.958 39.5699 135.897 39.4269 135.897 39.2267ZM136.018 47.4351V41.3718H137.169V47.4351H136.018Z" fill="#262626"/>
<path d="M139.166 44.4607C139.166 43.4596 139.469 42.6588 140.044 42.0868C140.649 41.5148 141.436 41.2288 142.466 41.2288C143.434 41.2288 144.191 41.5148 144.736 42.0582C145.281 42.6016 145.553 43.3738 145.553 44.3749C145.553 45.3187 145.251 46.1195 144.675 46.6915C144.1 47.2921 143.313 47.5782 142.314 47.5782C141.346 47.5782 140.589 47.2921 140.014 46.7201C139.439 46.1481 139.166 45.4045 139.166 44.4607ZM140.316 44.4321C140.316 45.1185 140.498 45.6905 140.861 46.0909C141.225 46.4913 141.739 46.6915 142.375 46.6915C143.011 46.6915 143.525 46.4913 143.858 46.0909C144.191 45.6905 144.373 45.1471 144.373 44.4035C144.373 43.6598 144.191 43.0878 143.858 42.716C143.525 42.3156 143.011 42.1154 142.375 42.1154C141.739 42.1154 141.225 42.3156 140.861 42.7446C140.498 43.145 140.316 43.717 140.316 44.4321Z" fill="#262626"/>
<path d="M152.939 47.4351H151.819V43.9744C151.819 42.716 151.335 42.1154 150.366 42.1154C149.882 42.1154 149.458 42.287 149.125 42.6302C148.792 42.9734 148.641 43.431 148.641 43.9744V47.4351H147.491V41.3718H148.641V42.3728H148.671C149.155 41.6006 149.852 41.2288 150.79 41.2288C151.486 41.2288 152.031 41.429 152.394 41.858C152.758 42.287 152.939 42.9162 152.939 43.717V47.4351Z" fill="#262626"/>
</svg>
