<svg width="113" height="55" viewBox="0 0 113 55" fill="none" xmlns="http://www.w3.org/2000/svg">
<g clip-path="url(#clip0_486_5508)">
<path d="M0.291777 1.02127C0.291777 0.729493 0.583554 0.437716 0.729443 0.583604C0.291777 0.583604 0.583554 0.875381 0.729443 1.02127V0.875381C0.729443 1.02127 0.583554 1.16716 0.729443 1.31305C0.583554 1.16716 0.145889 1.16716 0.145889 1.45894C0.291777 1.75071 0.291777 1.75071 0.437666 1.75071V1.60482C0.437666 1.75071 0.583554 2.04249 0.437666 2.04249C0.729443 2.62604 1.45889 2.33427 2.04244 2.62604C1.60477 2.48016 1.45889 2.77193 1.02122 2.62604C0.583554 2.33427 0.145889 1.8966 0 1.45894C0.145889 1.16716 0.145889 0.583604 0.291777 1.02127Z" fill="white"/>
<path d="M1.75058 1.02116C2.04235 1.02116 2.18824 1.45883 2.18824 1.7506C2.33413 1.02116 1.31291 1.45883 1.60469 0.875273C1.31291 0.729385 1.02113 0.729385 0.875244 0.583496C1.16702 0.729385 1.60469 0.437607 1.75058 1.02116Z" fill="white"/>
<path d="M2.18837 1.89661C2.33426 1.89661 2.48015 2.0425 2.48015 2.0425L2.18837 1.89661C2.18837 2.0425 2.04249 1.89661 2.18837 1.89661Z" fill="white"/>
<path d="M2.18826 2.33426C1.89648 2.33426 2.04237 2.18837 1.89648 2.04248L2.18826 2.33426Z" fill="white"/>
<path d="M5.83557 0C6.41912 0 6.85679 0.291777 7.14857 0.729443L7.44034 1.45889C7.29446 1.45889 7.14857 1.60477 7.29446 1.75066C7.44034 1.75066 7.73212 1.60477 7.73212 1.60477C7.87801 1.75066 8.16979 1.75066 8.0239 1.89655C8.31568 1.313 8.89923 1.16711 9.48278 1.16711L9.62867 1.45889C10.3581 0.875332 10.504 1.75066 11.2334 1.75066C12.5464 1.75066 11.6711 2.62599 12.9841 2.77188C12.6923 2.77188 12.2547 2.91777 12.5464 3.35544C12.8382 3.64721 13.13 3.20955 13.4218 3.50133C13.2759 3.93899 11.9629 3.35544 12.5464 4.37666C12.9841 4.52255 12.9841 4.96021 13.13 5.25199C14.1512 5.54377 14.443 6.71088 15.756 6.56499C15.1724 6.56499 15.4642 7.00265 15.3183 7.29443C15.6101 7.87798 16.1937 7.7321 16.4854 8.02387C16.3395 8.31565 16.6313 8.46154 16.3395 8.60743C15.6101 8.16976 15.0266 7.7321 14.2971 7.44032C14.1512 7.7321 13.7136 7.7321 13.8594 8.16976C14.2971 9.19098 14.2971 10.504 14.8807 11.0875C13.7136 9.92042 12.2547 9.04509 10.9417 8.02387C10.2122 8.60743 11.6711 8.75331 11.3793 9.04509C10.7958 8.8992 10.6499 9.33687 10.2122 9.48276L8.89923 8.46154C8.60745 8.60743 8.60745 8.75331 8.46157 8.75331C7.73212 8.75331 8.0239 7.44032 7.14857 7.58621C6.7109 7.14854 7.00268 6.56499 6.56501 6.12732C5.98146 6.27321 6.7109 6.56499 6.7109 6.85676C6.41912 6.85676 6.41912 6.4191 6.12735 6.56499C6.12735 7.00265 6.7109 7.58621 6.12735 8.02387C5.98146 7.58621 5.54379 8.02387 5.3979 7.7321C5.10613 7.87798 5.3979 8.16976 5.54379 8.31565C5.10613 8.31565 5.10613 7.7321 4.81435 7.87798C4.66846 8.02387 5.10613 8.31565 4.66846 8.31565C4.66846 8.16976 4.37668 7.87798 4.2308 7.87798C4.08491 8.02387 4.37668 8.16976 4.2308 8.46154C3.50135 7.58621 2.18836 7.00265 2.04247 5.68966C1.89658 5.1061 2.18836 4.52255 2.48013 4.23077C2.9178 4.08488 3.50135 3.50133 3.93902 3.93899C4.37668 3.93899 4.81435 4.08488 5.10613 4.23077C5.10613 3.93899 4.96024 3.64721 5.25202 3.50133C5.83557 3.93899 5.3979 4.81432 5.98146 5.25199C5.98146 4.81432 6.27324 4.23077 5.98146 3.93899C6.12735 3.50133 6.85679 3.35544 6.56501 2.77188C6.7109 2.77188 6.7109 2.77188 6.85679 2.77188C6.85679 2.48011 6.85679 2.48011 6.85679 2.18833C6.12735 2.33422 5.25202 1.75066 5.10613 1.02122C4.96024 0.583554 5.3979 0.145889 5.83557 0Z" fill="white"/>
<path d="M16.1936 11.5252C16.7771 12.4005 17.6525 12.4005 18.236 12.9841C18.8196 12.8382 19.549 13.13 19.6949 13.7135C19.549 13.7135 19.2572 13.2759 19.1114 13.4217C19.6949 13.7135 18.9655 13.8594 19.6949 14.0053L19.8408 13.7135C19.9867 14.443 19.8408 15.1724 20.7161 15.6101C21.1538 16.0477 21.8832 16.4854 22.175 16.9231C22.4668 17.2148 22.175 17.2148 22.0291 17.3607C20.7161 16.7772 19.9867 15.3183 18.8196 15.1724C17.9442 15.0265 18.6737 14.1512 18.0901 13.7135C18.0901 13.8594 18.0901 13.8594 18.236 13.8594C18.0901 13.5676 17.9442 14.2971 17.7984 13.8594C18.0901 14.2971 17.9442 14.8806 18.3819 15.1724C17.3607 13.7135 16.3395 12.2546 15.1724 11.0875C15.61 11.0875 15.7559 11.6711 16.1936 11.5252Z" fill="white"/>
<path d="M14.443 16.4854C15.1724 16.7772 15.0265 17.5066 15.3183 18.0902C15.0265 18.236 14.8806 17.9443 14.5888 17.9443C14.7347 17.9443 14.7347 17.9443 14.8806 17.6525C14.8806 17.7984 15.0265 17.7984 15.0265 17.6525C15.0265 17.3607 15.0265 16.923 14.8806 16.7772H14.5888L14.8806 16.6313C14.5888 16.4854 14.443 16.1936 14.0053 16.1936C14.0053 16.4854 13.8594 16.7772 13.5676 16.7772C13.5676 16.7772 13.8594 16.1936 14.443 16.4854Z" fill="white"/>
<path d="M19.2573 15.756C19.6949 16.0478 20.1326 16.3395 20.1326 17.069C19.9867 17.2149 20.1326 17.5066 19.9867 17.6525C19.549 17.6525 19.1114 17.6525 18.6737 17.2149C18.3819 16.9231 18.2361 16.6313 18.3819 16.1936C18.3819 15.6101 18.8196 15.6101 19.2573 15.756Z" fill="white"/>
<path d="M16.7773 19.695C16.9232 19.8409 16.9232 19.9868 16.9232 20.2786C16.7773 20.4244 16.6314 20.4244 16.3396 20.2786C16.0479 19.9868 16.4855 19.4032 16.7773 19.695Z" fill="white"/>
<g opacity="0.32">
<path d="M19.4032 17.2149H19.8408C19.5491 17.5066 19.4032 17.069 19.2573 17.5066C19.2573 17.3608 18.9655 17.2149 19.1114 16.9231C19.2573 17.069 19.2573 16.9231 19.4032 17.2149Z" fill="white"/>
</g>
<path d="M14.5888 26.5518C15.61 27.8648 15.1724 29.4695 15.4642 30.9284C15.3183 31.2202 15.0265 31.0743 14.8806 30.9284C14.4429 30.3449 14.8806 29.4695 14.2971 28.886C14.0053 28.1565 13.7135 27.2812 14.1512 26.4059C14.1512 26.4059 14.4429 26.4059 14.5888 26.5518Z" fill="white"/>
<g opacity="0.3">
<path d="M22.6127 33.4084C22.7586 33.7002 23.0504 33.992 23.1963 34.1379C23.3422 34.4297 22.7586 34.2838 23.1963 34.4297C23.0504 34.4297 22.9045 34.1379 22.6127 34.2838C22.7586 33.992 22.4668 33.7002 22.175 33.7002C22.3209 33.4084 22.4668 33.5543 22.6127 33.4084Z" fill="white"/>
</g>
<g opacity="0.3">
<path d="M25.0929 38.0769C24.6552 37.931 25.2388 38.5146 24.8011 38.5146V38.3687C24.6552 38.2228 24.947 38.0769 24.947 37.931L25.0929 38.0769Z" fill="white"/>
</g>
<g opacity="0.3">
<path d="M21.8833 38.2228C22.0292 38.2228 21.8833 37.931 22.0292 37.7852L22.321 38.0769C21.8833 37.931 22.4669 38.3687 22.1751 38.5146C22.0292 38.5146 21.8833 38.3687 21.8833 38.2228Z" fill="white"/>
</g>
<path d="M45.0797 39.6817V27.8648H46.3927V23.0504H19.5491V20.5703H17.7985V33.1167H19.5491V27.8648H41.5783V39.6817H12.9842V10.6499H5.83562V39.6817H0.437744V43.3289H53.3953V39.6817H45.0797Z" fill="white"/>
</g>
<path d="M60.7294 22H60V31.0451H60.7294V22Z" fill="white"/>
<path d="M65.3978 31.0451H64.6683V26.0849H62.9177V30.8992H62.1882V25.3555H62.9177V25.5014C63.2095 25.5014 63.5012 25.3555 63.793 25.3555C64.2307 25.3555 64.5224 25.3555 64.6683 25.3555C65.106 25.3555 65.2519 25.5014 65.2519 25.939V31.0451H65.3978Z" fill="white"/>
<path d="M68.6074 31.045H67.5862C67.1485 31.045 67.0026 30.8992 67.0026 30.4615V26.2307H66.2732V25.5013H67.0026V23.7506H67.7321V25.5013H68.7533V26.2307H67.7321V30.4615H68.7533V31.045H68.6074Z" fill="white"/>
<path d="M72.8381 30.3157C72.8381 30.7533 72.6922 30.8992 72.2545 30.8992H70.358C69.9203 30.8992 69.7744 30.6075 69.7744 30.3157V25.939C69.7744 25.5014 69.9203 25.3555 70.358 25.3555H72.2545C72.6922 25.3555 72.8381 25.5014 72.8381 25.939V27.9815L72.5463 28.2732H70.358V30.3157H71.9627V29.2945H72.6922V30.3157H72.8381ZM72.1086 26.0849H70.358V27.6897H71.9627V26.0849H72.1086Z" fill="white"/>
<path d="M76.9231 27.252H76.1937V26.0849H74.7348V30.8992H74.0054V25.3555H74.7348V25.5014C75.0266 25.5014 75.1725 25.3555 75.4643 25.3555C75.756 25.3555 76.0478 25.3555 76.1937 25.3555C76.6314 25.3555 76.7773 25.5014 76.7773 25.939V27.252H76.9231Z" fill="white"/>
<path d="M78.8195 24.1883H78.0901V23.1671H78.8195V24.1883ZM78.8195 31.0451H78.0901V25.5013H78.8195V31.0451Z" fill="white"/>
<path d="M83.3422 30.3157C83.3422 30.7533 83.1963 30.8992 82.7587 30.8992H80.8621C80.4245 30.8992 80.2786 30.6075 80.2786 30.3157V25.939C80.2786 25.5014 80.4245 25.3555 80.8621 25.3555H82.7587C83.1963 25.3555 83.3422 25.5014 83.3422 25.939V30.3157ZM82.4669 26.0849H80.7162V30.3157H82.4669V26.0849Z" fill="white"/>
<path d="M87.427 27.252H86.6976V26.0849H85.2387V30.8992H84.5093V25.3555H85.3846V25.5014C85.6764 25.5014 85.8223 25.3555 86.1141 25.3555C86.4058 25.3555 86.6976 25.3555 86.8435 25.3555C87.2812 25.3555 87.427 25.5014 87.427 25.939V27.252Z" fill="white"/>
<path d="M92.9708 31.0451H92.2413V30.8992C91.366 31.0451 90.9283 31.0451 90.9283 31.0451C90.6366 31.0451 90.3448 30.8992 90.1989 30.7533C89.7612 30.4615 89.7612 30.1697 89.7612 29.878V26.6684C89.7612 26.3766 89.9071 26.0849 90.053 25.7931C90.3448 25.5013 90.4907 25.5013 90.9283 25.5013H92.2413V22.1459H92.9708V31.0451ZM92.2413 30.3156V26.0849H91.2201C90.7825 26.0849 90.6366 26.2308 90.6366 26.6684V29.5862C90.6366 30.0239 90.7825 30.1697 91.2201 30.1697C91.2201 30.3156 91.5119 30.3156 92.2413 30.3156Z" fill="white"/>
<path d="M97.3476 30.3157C97.3476 30.7533 97.2017 30.8992 96.764 30.8992H94.8675C94.4298 30.8992 94.2839 30.7533 94.2839 30.3157V26.0849C94.2839 25.6472 94.4298 25.5013 94.8675 25.5013H96.764C97.2017 25.5013 97.3476 25.6472 97.3476 26.0849V28.1273L97.0558 28.2732H94.8675V30.3157H96.4723V29.2944H97.2017V30.3157H97.3476ZM96.6182 26.0849H95.0134V27.6897H96.6182V26.0849Z" fill="white"/>
<path d="M101.578 30.3157C101.578 30.7533 101.432 30.8992 100.995 30.8992H99.244C98.8063 30.8992 98.6604 30.7533 98.6604 30.3157V29.1485H99.3898V30.4615H100.995V29.2944L98.9522 27.6897C98.8063 27.5438 98.6604 27.3979 98.6604 27.1061V26.2308C98.6604 25.7931 98.8063 25.6472 99.244 25.6472H100.995C101.432 25.6472 101.578 25.7931 101.578 26.2308V27.3979H100.849V26.2308H99.244V27.252L101.286 28.8568C101.432 29.0027 101.578 29.1485 101.578 29.4403V30.3157Z" fill="white"/>
<path d="M103.621 24.1883H102.891V23.1671H103.621V24.1883ZM103.621 31.0451H102.891V25.5013H103.621V31.0451Z" fill="white"/>
<path d="M107.997 32.504C107.997 32.9417 107.852 33.0876 107.414 33.0876H105.663C105.226 33.0876 104.934 32.7958 104.934 32.2122C104.934 32.2122 104.934 32.0663 104.934 31.9205C104.934 31.7746 104.934 31.6287 104.934 31.6287H105.663V32.3581H107.268V30.8992H105.955C105.663 30.8992 105.371 30.7533 105.08 30.6075C104.788 30.3157 104.788 30.0239 104.788 29.7321V26.5226C104.788 26.2308 104.934 25.939 105.08 25.6472C105.226 25.5014 105.517 25.3555 105.809 25.3555C105.955 25.3555 106.393 25.3555 107.122 25.5014V25.3555H107.852V32.504H107.997ZM107.268 30.3157V26.0849C106.684 26.0849 106.247 26.0849 106.247 26.0849C105.809 26.0849 105.663 26.2308 105.663 26.6685V29.5862C105.663 30.0239 105.809 30.1698 106.247 30.1698H107.268V30.3157Z" fill="white"/>
<path d="M112.52 31.0451H111.79V26.0849H110.04V30.8992H109.31V25.3555H110.04V25.5014C110.332 25.5014 110.623 25.3555 110.915 25.3555C111.353 25.3555 111.645 25.3555 111.79 25.3555C112.228 25.3555 112.374 25.5014 112.374 25.939V31.0451H112.52Z" fill="white"/>
<defs>
<clipPath id="clip0_486_5508">
<rect width="53.3952" height="55" fill="white"/>
</clipPath>
</defs>
</svg>
