<svg width="49" height="49" viewBox="0 0 49 49" fill="none" xmlns="http://www.w3.org/2000/svg">
<path d="M49 24.5C49 19.6544 47.5631 14.9175 44.871 10.8885C42.1789 6.85953 38.3525 3.71931 33.8757 1.86496C29.399 0.0106151 24.4728 -0.474566 19.7203 0.470772C14.9678 1.41611 10.6023 3.74951 7.17589 7.17589C3.74951 10.6023 1.41611 14.9678 0.470772 19.7203C-0.474566 24.4728 0.0106151 29.399 1.86496 33.8757C3.71931 38.3525 6.85953 42.1789 10.8885 44.871C14.9175 47.5631 19.6544 49 24.5 49C30.9959 48.9936 37.2238 46.4104 41.8171 41.8171C46.4104 37.2238 48.9936 30.9959 49 24.5ZM25.9412 46.0696V29.7843H32.1863C32.5685 29.7843 32.9351 29.6325 33.2053 29.3622C33.4756 29.0919 33.6275 28.7254 33.6275 28.3431C33.6275 27.9609 33.4756 27.5943 33.2053 27.3241C32.9351 27.0538 32.5685 26.902 32.1863 26.902H25.9412V20.6569C25.9475 19.5121 26.405 18.4161 27.2145 17.6066C28.0239 16.7972 29.12 16.3396 30.2647 16.3333H34.1078C34.4901 16.3333 34.8566 16.1815 35.1269 15.9112C35.3972 15.641 35.549 15.2744 35.549 14.8922C35.549 14.5099 35.3972 14.1434 35.1269 13.8731C34.8566 13.6028 34.4901 13.451 34.1078 13.451H30.2647C28.3555 13.4573 26.5264 14.2185 25.1764 15.5685C23.8264 16.9185 23.0652 18.7477 23.0588 20.6569V26.902H16.8137C16.4315 26.902 16.0649 27.0538 15.7947 27.3241C15.5244 27.5943 15.3726 27.9609 15.3726 28.3431C15.3726 28.7254 15.5244 29.0919 15.7947 29.3622C16.0649 29.6325 16.4315 29.7843 16.8137 29.7843H23.0588V46.0696C17.4628 45.6957 12.2311 43.1616 8.46861 39.0024C4.70611 34.8432 2.70733 29.3845 2.89439 23.7791C3.08144 18.1737 5.43968 12.8604 9.47109 8.96126C13.5025 5.06213 18.8915 2.88242 24.5 2.88242C30.1085 2.88242 35.4975 5.06213 39.5289 8.96126C43.5603 12.8604 45.9186 18.1737 46.1056 23.7791C46.2927 29.3845 44.2939 34.8432 40.5314 39.0024C36.7689 43.1616 31.5372 45.6957 25.9412 46.0696Z" fill="#464646"/>
</svg>
