<svg width="52" height="53" viewBox="0 0 52 53" fill="none" xmlns="http://www.w3.org/2000/svg">
<path d="M27.7426 0C28.8407 0.130039 29.9532 0.231182 31.0369 0.419016C37.7411 1.57492 43.4917 4.47913 47.7975 9.86852C50.7739 13.5963 52.2188 17.8876 51.9732 22.6846C51.7853 26.1812 50.4994 29.2588 48.4332 32.0474C46.2515 35.0094 43.4917 37.3935 40.5875 39.6041C35.1692 43.7509 29.7509 47.8977 24.3326 52.0445C24.2315 52.1168 24.1448 52.189 24.0437 52.2613C23.668 52.5647 23.249 52.6658 22.8011 52.4346C22.3532 52.2035 22.1942 51.8278 22.1942 51.3365C22.1942 49.9784 22.1942 48.6346 22.1942 47.2764C22.1942 45.7738 22.1942 44.2711 22.1942 42.754C21.0961 42.5661 20.0125 42.4216 18.9577 42.1905C13.3082 40.9623 8.36673 38.4627 4.58115 33.9836C1.22903 30.0246 -0.33144 25.4154 0.0586775 20.2283C0.434346 15.2868 2.61611 11.1689 6.11272 7.7301C10.0861 3.82893 14.912 1.54602 20.3592 0.534605C21.5151 0.317873 22.6999 0.231182 23.8703 0.0866936C24.0003 0.0722448 24.1304 0.0288976 24.2604 0C25.4163 0 26.5722 0 27.7426 0ZM24.3615 49.2559C24.5638 49.1259 24.6939 49.0536 24.8095 48.9669C29.7654 45.1814 34.7358 41.3958 39.6773 37.5813C42.1191 35.703 44.4454 33.6801 46.3526 31.2238C50.1382 26.3112 50.8751 20.9652 48.491 15.2579C46.7716 11.14 43.7807 8.10577 39.9662 5.90956C33.132 1.96504 25.8498 1.2137 18.2786 3.25098C13.2793 4.60916 8.98803 7.18105 5.8093 11.3423C2.25489 15.9948 1.18568 21.1819 2.99178 26.817C4.43666 31.325 7.45646 34.5904 11.4588 37.0033C15.0565 39.1707 19.001 40.2543 23.1478 40.6444C24.0437 40.7311 24.3471 41.0779 24.3471 41.9593C24.3471 44.1988 24.3471 46.4384 24.3471 48.678C24.3615 48.8369 24.3615 49.0103 24.3615 49.2559Z" fill="#464646"/>
<path d="M25.3874 20.5462C25.3874 22.1355 25.3874 23.7249 25.3874 25.3143C25.3874 25.5888 25.3585 25.8633 25.2573 26.109C25.084 26.5713 24.7516 26.8459 24.2315 26.8025C23.7258 26.7736 23.3646 26.5135 23.2056 26.0223C23.1623 25.8778 23.1334 25.7189 23.1334 25.5744C23.1334 22.6991 23.1189 19.8237 23.1334 16.9484C23.1334 16.2693 23.4946 15.8359 24.087 15.7203C24.636 15.6191 24.9973 15.9226 25.3007 16.3271C26.2399 17.5408 27.179 18.769 28.1182 19.9827C28.6962 20.7196 29.2597 21.4565 29.8376 22.2078C29.8954 22.1933 29.9388 22.1789 29.9965 22.1789C29.9965 21.9333 29.9965 21.7021 29.9965 21.4565C29.9965 20.0838 29.9965 18.7256 29.9965 17.353C29.9965 17.1941 29.9965 17.0496 29.9965 16.8906C30.0543 16.1538 30.4589 15.7203 31.0947 15.7203C31.7449 15.7203 32.1494 16.1393 32.1639 16.9051C32.1928 18.7401 32.1783 20.5606 32.1783 22.3956C32.1783 23.4504 32.1783 24.5196 32.1783 25.5744C32.1783 26.0223 32.0483 26.4124 31.6148 26.658C31.0802 26.9614 30.5601 26.8459 30.0977 26.2535C29.173 25.0831 28.2771 23.9127 27.3524 22.7279C26.8756 22.1211 26.4132 21.4998 25.9364 20.9074C25.8064 20.7485 25.633 20.6184 25.4741 20.4739C25.4596 20.5028 25.4163 20.5317 25.3874 20.5462Z" fill="#464646"/>
<path d="M36.3973 22.4679C36.3973 23.1758 36.3973 23.8405 36.3973 24.5918C36.5996 24.5918 36.7875 24.5918 36.9897 24.5918C37.9434 24.6063 38.897 24.5918 39.865 24.6352C40.6164 24.6641 41.0065 25.0397 41.0209 25.6755C41.0498 26.3546 40.6886 26.788 39.9228 26.8169C38.3913 26.8603 36.8452 26.8747 35.3137 26.8314C34.4901 26.8169 34.1289 26.3835 34.1144 25.5454C34.1 23.9705 34.1 22.3956 34.1 20.8351C34.1 19.607 34.1 18.3788 34.1144 17.1362C34.1289 16.1248 34.5045 15.7492 35.5304 15.7347C36.9897 15.7203 38.4346 15.7203 39.8939 15.7347C40.6164 15.7347 41.0354 16.1393 41.0643 16.8184C41.0932 17.4108 40.7175 17.8442 40.0095 17.8876C38.9837 17.9454 37.9578 17.9598 36.9319 17.9598C36.5129 17.9598 36.3829 18.1043 36.354 18.5089C36.2239 20.0405 36.2962 20.1271 37.8133 20.1416C38.478 20.156 39.1426 20.1271 39.8072 20.156C40.5008 20.1849 40.9054 20.4884 41.0065 20.9941C41.1654 21.7743 40.732 22.3378 39.9084 22.3812C38.9981 22.4245 38.1023 22.3956 37.192 22.4101C36.9175 22.4101 36.6719 22.439 36.3973 22.4679Z" fill="#464646"/>
<path d="M13.0771 24.5918C14.0885 24.5918 15.0421 24.5918 15.9957 24.5918C16.2703 24.5918 16.5448 24.5918 16.8193 24.6352C17.3973 24.7363 17.7874 25.2131 17.7874 25.7333C17.7729 26.2679 17.3684 26.7736 16.7904 26.7881C15.1288 26.8314 13.4817 26.817 11.82 26.7881C11.2999 26.7736 10.982 26.4268 10.8953 25.9067C10.852 25.6755 10.8375 25.4299 10.8375 25.1987C10.8375 22.6124 10.8375 20.0405 10.8375 17.4541C10.8375 17.1507 10.8664 16.8328 10.9242 16.5439C11.0398 16.0237 11.4155 15.7492 11.9067 15.7347C12.398 15.7203 12.817 15.9659 12.9615 16.4716C13.0482 16.7895 13.0771 17.1507 13.0771 17.483C13.0771 19.8093 13.0771 22.15 13.0771 24.5918Z" fill="#464646"/>
<path d="M21.2406 21.283C21.2406 22.7279 21.2551 24.1872 21.2406 25.6321C21.2262 26.6291 20.7783 26.9758 19.7958 26.8169C19.4201 26.7591 19.1745 26.5568 19.1022 26.1812C19.0733 25.9789 19.0444 25.7766 19.0444 25.5743C19.0444 22.699 19.0444 19.8381 19.0444 16.9628C19.0444 15.9225 19.4779 15.5613 20.4893 15.7347C20.9083 15.8069 21.1684 16.0237 21.2118 16.4716C21.2262 16.6883 21.2551 16.9195 21.2551 17.1362C21.2406 18.5233 21.2406 19.8959 21.2406 21.283Z" fill="#464646"/>
</svg>
