<svg width="17" height="20" viewBox="0 0 17 20" fill="none" xmlns="http://www.w3.org/2000/svg">
<path fill-rule="evenodd" clip-rule="evenodd" d="M2.77776 2.5H5.20831C5.59026 2.5 5.90276 2.875 5.90276 3.33333C5.90276 4.375 6.04165 5.375 6.29859 6.30833C6.37498 6.6 6.31942 6.925 6.12498 7.15833L4.5972 8.99167C5.5972 11.35 7.20831 13.275 9.17359 14.4833L10.7014 12.65C10.8403 12.4917 11.0139 12.4083 11.1944 12.4083C11.2639 12.4083 11.3403 12.4167 11.4097 12.45C12.1875 12.7583 13.0278 12.925 13.8889 12.925C14.2708 12.925 14.5833 13.3 14.5833 13.7583V16.6667C14.5833 17.125 14.2708 17.5 13.8889 17.5C7.36803 17.5 2.08331 11.1583 2.08331 3.33333C2.08331 2.875 2.39581 2.5 2.77776 2.5ZM4.54165 4.16667C4.58331 4.90833 4.68748 5.63333 4.85415 6.325L4.02081 7.325C3.73609 6.325 3.55554 5.26667 3.49304 4.16667H4.54165ZM11.3889 14.1833C11.9791 14.3833 12.5833 14.5083 13.1944 14.5583V15.8C12.2778 15.725 11.3958 15.5083 10.5555 15.175L11.3889 14.1833Z" fill="#464646"/>
</svg>
