<svg width="53" height="39" viewBox="0 0 53 39" fill="none" xmlns="http://www.w3.org/2000/svg">
<path d="M31.3636 19.3116L22.7993 24.1881V14.4351L31.3636 19.3116Z" fill="#464646" stroke="#464646" stroke-width="3" stroke-linecap="round" stroke-linejoin="round"/>
<path d="M2 21.0355V17.5854C2 10.5266 2 6.996 4.21451 4.72598C6.43146 2.45352 9.92084 2.35599 16.8972 2.15849C20.2006 2.06583 23.5774 2 26.4697 2C29.3596 2 32.7364 2.06583 36.0422 2.15849C43.0185 2.35599 46.5079 2.45352 48.7224 4.72598C50.9394 6.996 50.9394 10.529 50.9394 17.5854V21.0355C50.9394 28.0967 50.9394 31.6249 48.7249 33.8973C46.5079 36.1674 43.021 36.2673 36.0422 36.4624C32.7388 36.5575 29.362 36.6233 26.4697 36.6233C23.2783 36.6138 20.0871 36.5601 16.8972 36.4624C9.92084 36.2673 6.43146 36.1698 4.21451 33.8973C2 31.6249 2 28.0943 2 21.0379V21.0355Z" stroke="#464646" stroke-width="3"/>
</svg>
