<svg width="46" height="46" viewBox="0 0 46 46" fill="none" xmlns="http://www.w3.org/2000/svg">
<path d="M23.2071 32.5234C25.7069 32.5234 28.1042 31.5339 29.8718 29.7726C31.6394 28.0113 32.6325 25.6224 32.6325 23.1316C32.6325 20.6407 31.6394 18.2519 29.8718 16.4905C28.1042 14.7292 25.7069 13.7397 23.2071 13.7397C20.7073 13.7397 18.31 14.7292 16.5424 16.4905C14.7748 18.2519 13.7817 20.6407 13.7817 23.1316C13.7817 25.6224 14.7748 28.0113 16.5424 29.7726C18.31 31.5339 20.7073 32.5234 23.2071 32.5234V32.5234Z" stroke="#464646" stroke-width="3" stroke-linecap="round" stroke-linejoin="round"/>
<path d="M2 32.5234V13.7398C2 10.6262 3.24128 7.64014 5.45078 5.4385C7.66028 3.23687 10.657 2 13.7817 2H32.6324C35.7571 2 38.7539 3.23687 40.9634 5.4385C43.1729 7.64014 44.4141 10.6262 44.4141 13.7398V32.5234C44.4141 35.637 43.1729 38.6231 40.9634 40.8247C38.7539 43.0263 35.7571 44.2632 32.6324 44.2632H13.7817C10.657 44.2632 7.66028 43.0263 5.45078 40.8247C3.24128 38.6231 2 35.637 2 32.5234Z" stroke="#464646" stroke-width="3"/>
<path d="M36.1669 10.2429L36.1917 10.2156" stroke="#464646" stroke-width="3" stroke-linecap="round" stroke-linejoin="round"/>
</svg>
