<svg width="20" height="21" viewBox="0 0 20 21" fill="none" xmlns="http://www.w3.org/2000/svg">
<path fill-rule="evenodd" clip-rule="evenodd" d="M10 2.16675C6.77502 2.16675 4.16669 4.77508 4.16669 8.00008C4.16669 12.3751 10 18.8334 10 18.8334C10 18.8334 15.8334 12.3751 15.8334 8.00008C15.8334 4.77508 13.225 2.16675 10 2.16675ZM5.83335 8.00008C5.83335 5.70008 7.70002 3.83342 10 3.83342C12.3 3.83342 14.1667 5.70008 14.1667 8.00008C14.1667 10.4001 11.7667 13.9918 10 16.2334C8.26669 14.0084 5.83335 10.3751 5.83335 8.00008ZM7.91669 8.00008C7.91669 6.84949 8.84943 5.91675 10 5.91675C10.7443 5.91675 11.4321 6.31383 11.8042 6.95842C12.1764 7.603 12.1764 8.39716 11.8042 9.04175C11.4321 9.68633 10.7443 10.0834 10 10.0834C8.84943 10.0834 7.91669 9.15067 7.91669 8.00008Z" fill="#464646"/>
</svg>
