<svg width="54" height="55" viewBox="0 0 54 55" fill="none" xmlns="http://www.w3.org/2000/svg">
<path d="M28.7574 0.75L28.7722 0.751763C29.0465 0.784514 29.3231 0.815582 29.601 0.846789C30.4263 0.939476 31.2626 1.03339 32.0799 1.17625C38.8332 2.35037 44.643 5.30486 48.9934 10.7956L48.9935 10.7957C52.0064 14.6006 53.4717 18.987 53.2229 23.8866L53.2228 23.8872C53.032 27.4693 51.7248 30.6183 49.6351 33.4623C47.4324 36.4776 44.6507 38.8987 41.7397 41.1329L33.6128 47.4046L25.4854 53.6768L25.4788 53.6818L25.4788 53.6817C25.4323 53.7151 25.3888 53.7489 25.3414 53.7857L25.3399 53.7868C25.2955 53.8212 25.2476 53.8584 25.1957 53.8959C24.9855 54.066 24.7497 54.1904 24.4905 54.2335C24.2254 54.2777 23.9541 54.2337 23.6857 54.094C23.4203 53.9559 23.229 53.7674 23.1075 53.5314C22.9878 53.2992 22.9442 53.0379 22.9442 52.7649V52.7569V52.7489V52.7409V52.7328V52.7248V52.7168V52.7088V52.7007V52.6927V52.6847V52.6767V52.6687V52.6606V52.6526V52.6446V52.6366V52.6286V52.6205V52.6125V52.6045V52.5965V52.5885V52.5805V52.5724V52.5644V52.5564V52.5484V52.5404V52.5324V52.5243V52.5163V52.5083V52.5003V52.4923V52.4843V52.4763V52.4682V52.4602V52.4522V52.4442V52.4362V52.4282V52.4202V52.4122V52.4041V52.3961V52.3881V52.3801V52.3721V52.3641V52.3561V52.3481V52.3401V52.3321V52.3241V52.316V52.308V52.3V52.292V52.284V52.276V52.268V52.26V52.252V52.244V52.236V52.228V52.22V52.212V52.204V52.196V52.188V52.18V52.1719V52.1639V52.1559V52.1479V52.1399V52.1319V52.1239V52.1159V52.1079V52.0999V52.0919V52.0839V52.0759V52.0679V52.0599V52.0519V52.0439V52.0359V52.0279V52.0199V52.0119V52.0039V51.9959V51.9879V51.9799V51.9719V51.9639V51.9559V51.9479V51.9399V51.9319V51.9239V51.916V51.908V51.9V51.892V51.884V51.876V51.868V51.86V51.852V51.844V51.836V51.828V51.82V51.812V51.804V51.796V51.788V51.78V51.772V51.764V51.7561V51.7481V51.7401V51.7321V51.7241V51.7161V51.7081V51.7001V51.6921V51.6841V51.6761V51.6681V51.6602V51.6522V51.6442V51.6362V51.6282V51.6202V51.6122V51.6042V51.5962V51.5882V51.5803V51.5723V51.5643V51.5563V51.5483V51.5403V51.5323V51.5243V51.5163V51.5084V51.5004V51.4924V51.4844V51.4764V51.4684V51.4604V51.4524V51.4445V51.4365V51.4285V51.4205V51.4125V51.4045V51.3965V51.3885V51.3806V51.3726V51.3646V51.3566V51.3486V51.3406V51.3326V51.3247V51.3167V51.3087V51.3007V51.2927V51.2847V51.2767V51.2688V51.2608V51.2528V51.2448V51.2368V51.2288V51.2209V51.2129V51.2049V51.1969V51.1889V51.1809V51.1729V51.165V51.157V51.149V51.141V51.133V51.125V51.1171V51.1091V51.1011V51.0931V51.0851V51.0771V51.0692V51.0612V51.0532V51.0452V51.0372V51.0292V51.0213V51.0133V51.0053V50.9973V50.9893V50.9813V50.9734V50.9654V50.9574V50.9494V50.9414V50.9335V50.9255V50.9175V50.9095V50.9015V50.8935V50.8856V50.8776V50.8696V50.8616V50.8536V50.8457V50.8377V50.8297V50.8217V50.8137V50.8057V50.7978V50.7898V50.7818V50.7738V50.7658V50.7579V50.7499V50.7419V50.7339V50.7259V50.7179V50.71V50.702V50.694V50.686V50.678V50.6701V50.6621V50.6541V50.6461V50.6381V50.6301V50.6222V50.6142V50.6062V50.5982V50.5902V50.5822V50.5743V50.5663V50.5583V50.5503V50.5423V50.5344V50.5264V50.5184V50.5104V50.5024V50.4944V50.4865V50.4785V50.4705V50.4625V50.4545V50.4466V50.4386V50.4306V50.4226V50.4146V50.4066V50.3987V50.3907V50.3827V50.3747V50.3667V50.3587V50.3508V50.3428V50.3348V50.3268V50.3188V50.3108V50.3029V50.2949V50.2869V50.2789V50.2709V50.2629V50.255V50.247V50.239V50.231V50.223V50.215V50.207V50.1991V50.1911V50.1831V50.1751V50.1671V50.1591V50.1512V50.1432V50.1352V50.1272V50.1192V50.1112V50.1032V50.0953V50.0873V50.0793V50.0713V50.0633V50.0553V50.0473V50.0394V50.0314V50.0234V50.0154V50.0074V49.9994V49.9914V49.9834V49.9755V49.9675V49.9595V49.9515V49.9435V49.9355V49.9275V49.9195V49.9116V49.9036V49.8956V49.8876V49.8796V49.8716V49.8636V49.8556V49.8476V49.8396V49.8317V49.8237V49.8157V49.8077V49.7997V49.7917V49.7837V49.7757V49.7677V49.7597V49.7518V49.7438V49.7358V49.7278V49.7198V49.7118V49.7038V49.6958V49.6878V49.6798V49.6718V49.6638V49.6558V49.6479V49.6399V49.6319V49.6239V49.6159V49.6079V49.5999V49.5919V49.5839V49.5759V49.5679V49.5599V49.5519V49.5439V49.5359V49.5279V49.5199V49.5119V49.5039V49.4959V49.4879V49.4799V49.472V49.464V49.456V49.448V49.44V49.432V49.424V49.416V49.408V49.4V49.392V49.384V49.376V49.368V49.36V49.352V49.344V49.336V49.328V49.32V49.312V49.304V49.2959V49.2879V49.2799V49.2719V49.2639V49.2559V49.2479V49.2399V49.2319V49.2239V49.2159V49.2079V49.1999V49.1919V49.1839V49.1759V49.1679V49.1599V49.1519V49.1439V49.1359V49.1278V49.1198V49.1118V49.1038V49.0958V49.0878V49.0798V49.0718V49.0638V49.0558V49.0478V49.0397V49.0317V49.0237V49.0157V49.0077V48.9997V48.9917V48.9837V48.9757V48.9676V48.9596V48.9516V48.9436V48.9356V48.9276V48.9196V48.9115V48.9035V48.8955V48.8875V48.8795V48.8715V48.8634V48.8554V48.8474V48.8394V48.8314V48.8234V48.8153V48.8073V48.7993V48.7913V48.7833V48.7752V48.7672V48.7592V48.7512V48.7432V48.7351V48.7271V48.7191V48.7111V48.703V48.695V48.687V48.679V48.6709V48.6621V48.6532V48.6443V48.6354V48.6266V48.6177V48.6088V48.5999V48.591V48.5822V48.5733V48.5644V48.5555V48.5467V48.5378V48.5289V48.52V48.5111V48.5023V48.4934V48.4845V48.4756V48.4667V48.4579V48.449V48.4401V48.4312V48.4224V48.4135V48.4046V48.3957V48.3868V48.378V48.3691V48.3602V48.3513V48.3424V48.3336V48.3247V48.3158V48.3069V48.2981V48.2892V48.2803V48.2714V48.2625V48.2537V48.2448V48.2359V48.227V48.2181V48.2093V48.2004V48.1915V48.1826V48.1737V48.1649V48.156V48.1471V48.1382V48.1294V48.1205V48.1116V48.1027V48.0938V48.085V48.0761V48.0672V48.0583V48.0494V48.0406V48.0317V48.0228V48.0139V48.005V47.9962V47.9873V47.9784V47.9695V47.9606V47.9518V47.9429V47.934V47.9251V47.9162V47.9074V47.8985V47.8896V47.8807V47.8718V47.8629V47.8541V47.8452V47.8363V47.8274V47.8185V47.8097V47.8008V47.7919V47.783V47.7741V47.7653V47.7564V47.7475V47.7386V47.7297V47.7208V47.712V47.7031V47.6942V47.6853V47.6764V47.6676V47.6587V47.6498V47.6409V47.632V47.6231V47.6143V47.6054V47.5965V47.5876V47.5787V47.5698V47.561V47.5521V47.5432V47.5343V47.5254V47.5165V47.5077V47.4988V47.4899V47.481V47.4721V47.4632V47.4544V47.4455V47.4366V47.4277V47.4188V47.4099V47.401V47.3922V47.3833V47.3744V47.3655V47.3566V47.3477V47.3389V47.33V47.3211V47.3122V47.3033V47.2944V47.2855V47.2766V47.2678V47.2589V47.25V47.2411V47.2322V47.2233V47.2144V47.2056V47.1967V47.1878V47.1789V47.17V47.1611V47.1522V47.1433V47.1345V47.1256V47.1167V47.1078V47.0989V47.09V47.0811V47.0722V47.0634V47.0545V47.0456V47.0367V47.0278V47.0189V47.01V47.0011V46.9922V46.9833V46.9745V46.9656V46.9567V46.9478V46.9389V46.93V46.9211V46.9122V46.9033V46.8944V46.8855V46.8767V46.8678V46.8589V46.85V46.8411V46.8322V46.8233V46.8144V46.8055V46.7966V46.7877V46.7788V46.7699V46.7611V46.7522V46.7433V46.7344V46.7255V46.7166V46.7077V46.6988V46.6899V46.681V46.6721V46.6632V46.6543V46.6454V46.6365V46.6276V46.6187V46.6098V46.601V46.5921V46.5832V46.5743V46.5654V46.5565V46.5476V46.5387V46.5298V46.5209V46.512V46.5031V46.4942V46.4853V46.4764V46.4675V46.4586V46.4497V46.4408V46.4319V46.423V46.4141V46.4052V46.3963V46.3874V46.3785V46.3696V46.3607V46.3518V46.3429V46.334V46.3251V46.3162V46.3073V46.2984V46.2895V46.2806V46.2717V46.2628V46.2539V46.245V46.2361V46.2272V46.2183V46.2094V46.2005V46.1916V46.1827V46.1738V46.1649V46.156V46.1471V46.1381V46.1292V46.1203V46.1114V46.1025V46.0936V46.0847V46.0758V46.0669V46.058V46.0491V46.0402V46.0313V46.0224V46.0135V46.0046V45.9956V45.9867V45.9778V45.9689V45.96V45.9511V45.9422V45.9333V45.9244V45.9155V45.9066V45.8977V45.8887V45.8798V45.8709V45.862V45.8531V45.8442V45.8353V45.8264V45.8175V45.8085V45.7996V45.7907V45.7818V45.7729V45.764V45.7551V45.7462V45.7372V45.7283V45.7194V45.7105V45.7016V45.6927V45.6838V45.6748V45.6659V45.657V45.6481V45.6392V45.6303V45.6213V45.6124V45.6035V45.5946V45.5857V45.5768V45.5678V45.5589V45.55V45.5411V45.5322V45.5232V45.5143V45.5054V45.4965V45.4876V45.4786V45.4697V45.4608V45.4519V45.443V45.434V45.4251V45.4162V45.4073V45.3984V45.3894V45.3805V45.3716V45.3627V45.3537V45.3448V45.3359V45.327V45.3181V45.3091V45.3002V45.2913V45.2823V45.2734V45.2645V45.2556V45.2466V45.2377V45.2288V45.2199V45.2109V45.202V45.1931V45.1842V45.1752V45.1663V45.1574V45.1484V45.1395V45.1306V45.1217V45.1127V45.1038V45.0949V45.0859V45.077V45.0681V45.0591V45.0502V45.0413V45.0323V45.0234V45.0145V45.0055V44.9966V44.9877V44.9787V44.9698V44.9609V44.9519V44.943V44.9341V44.9251V44.9162V44.9073V44.8983V44.8894V44.8804V44.8715V44.8626V44.8536V44.8447V44.8358V44.8268V44.8179V44.8089V44.8V44.7911V44.7821V44.7732V44.7642V44.7553V44.7463V44.7374V44.7285V44.7195V44.7106V44.7016V44.6927V44.6838V44.6748V44.6659V44.6569V44.648V44.639V44.6301V44.6211V44.6122V44.6032V44.5943V44.5854V44.5764V44.5675V44.5585V44.5496V44.5406V44.5317V44.5227V44.5138V44.5048V44.4959V44.4869V44.478V44.469V44.4601V44.4511V44.4422V44.4332V44.4243V44.4153V44.4064V44.3974V44.3885V44.3795V44.3705V44.3616V44.3526V44.3437V44.3347V44.3258V44.3218C22.6786 44.2771 22.4123 44.2343 22.1461 44.1915C21.3922 44.0702 20.639 43.9491 19.9042 43.7867C19.904 43.7867 19.9039 43.7867 19.9037 43.7866L19.9577 43.5425C14.3082 42.3041 9.36673 39.7836 5.58115 35.2671C2.22903 31.2751 0.66856 26.6275 1.05868 21.3971L28.7574 0.75ZM28.7574 0.75H28.7426H28.7357H28.7288H28.722H28.7151H28.7083H28.7014H28.6946H28.6877H28.6808H28.674H28.6671H28.6603H28.6534H28.6466H28.6397H28.6329H28.626H28.6192H28.6123H28.6055H28.5986H28.5918H28.5849H28.5781H28.5712H28.5644H28.5575H28.5507H28.5438H28.537H28.5301H28.5233H28.5164H28.5096H28.5027H28.4959H28.489H28.4822H28.4754H28.4685H28.4617H28.4548H28.448H28.4411H28.4343H28.4274H28.4206H28.4138H28.4069H28.4001H28.3932H28.3864H28.3796H28.3727H28.3659H28.359H28.3522H28.3454H28.3385H28.3317H28.3248H28.318H28.3112H28.3043H28.2975H28.2906H28.2838H28.277H28.2701H28.2633H28.2565H28.2496H28.2428H28.236H28.2291H28.2223H28.2155H28.2086H28.2018H28.195H28.1881H28.1813H28.1745H28.1676H28.1608H28.154H28.1471H28.1403H28.1335H28.1266H28.1198H28.113H28.1061H28.0993H28.0925H28.0857H28.0788H28.072H28.0652H28.0583H28.0515H28.0447H28.0379H28.031H28.0242H28.0174H28.0106H28.0037H27.9969H27.9901H27.9833H27.9764H27.9696H27.9628H27.956H27.9491H27.9423H27.9355H27.9287H27.9218H27.915H27.9082H27.9014H27.8946H27.8877H27.8809H27.8741H27.8673H27.8605H27.8536H27.8468H27.84H27.8332H27.8264H27.8195H27.8127H27.8059H27.7991H27.7923H27.7854H27.7786H27.7718H27.765H27.7582H27.7514H27.7445H27.7377H27.7309H27.7241H27.7173H27.7105H27.7037H27.6968H27.69H27.6832H27.6764H27.6696H27.6628H27.656H27.6491H27.6423H27.6355H27.6287H27.6219H27.6151H27.6083H27.6015H27.5946H27.5878H27.581H27.5742H27.5674H27.5606H27.5538H27.547H27.5402H27.5334H27.5265H27.5197H27.5129H27.5061H27.4993H27.4925H27.4857H27.4789H27.4721H27.4653H27.4585H27.4517H27.4449H27.438H27.4312H27.4244H27.4176H27.4108H27.404H27.3972H27.3904H27.3836H27.3768H27.37H27.3632H27.3564H27.3496H27.3428H27.336H27.3292H27.3224H27.3156H27.3088H27.302H27.2952H27.2884H27.2816H27.2748H27.268H27.2612H27.2544H27.2476H27.2408H27.234H27.2272H27.2204H27.2136H27.2068H27.2H27.1932H27.1864H27.1796H27.1728H27.166H27.1592H27.1524H27.1456H27.1388H27.132H27.1252H27.1184H27.1116H27.1048H27.098H27.0912H27.0844H27.0776H27.0708H27.064H27.0572H27.0504H27.0436H27.0368H27.03H27.0232H27.0164H27.0096H27.0029H26.9961H26.9893H26.9825H26.9757H26.9689H26.9621H26.9553H26.9485H26.9417H26.9349H26.9281H26.9213H26.9145H26.9077H26.901H26.8942H26.8874H26.8806H26.8738H26.867H26.8602H26.8534H26.8466H26.8398H26.833H26.8263H26.8195H26.8127H26.8059H26.7991H26.7923H26.7855H26.7787H26.7719H26.7652H26.7584H26.7516H26.7448H26.738H26.7312H26.7244H26.7176H26.7108H26.7041H26.6973H26.6905H26.6837H26.6769H26.6701H26.6633H26.6565H26.6498H26.643H26.6362H26.6294H26.6226H26.6158H26.609H26.6023H26.5955H26.5887H26.5819H26.5751H26.5683H26.5615H26.5548H26.548H26.5412H26.5344H26.5276H26.5208H26.5141H26.5073H26.5005H26.4937H26.4869H26.4801H26.4734H26.4666H26.4598H26.453H26.4462H26.4394H26.4327H26.4259H26.4191H26.4123H26.4055H26.3987H26.392H26.3852H26.3784H26.3716H26.3648H26.3581H26.3513H26.3445H26.3377H26.3309H26.3242H26.3174H26.3106H26.3038H26.297H26.2902H26.2835H26.2767H26.2699H26.2631H26.2563H26.2496H26.2428H26.236H26.2292H26.2225H26.2157H26.2089H26.2021H26.1953H26.1886H26.1818H26.175H26.1682H26.1614H26.1547H26.1479H26.1411H26.1343H26.1275H26.1208H26.114H26.1072H26.1004H26.0937H26.0869H26.0801H26.0733H26.0665H26.0598H26.053H26.0462H26.0394H26.0327H26.0259H26.0191H26.0123H26.0056H25.9988H25.992H25.9852H25.9784H25.9717H25.9649H25.9581H25.9513H25.9446H25.9378H25.931H25.9242H25.9175H25.9107H25.9039H25.8971H25.8904H25.8836H25.8768H25.87H25.8633H25.8565H25.8497H25.8429H25.8362H25.8294H25.8226H25.8158H25.8091H25.8023H25.7955H25.7887H25.782H25.7752H25.7684H25.7616H25.7549H25.7481H25.7413H25.7345H25.7278H25.721H25.7142H25.7074H25.7007H25.6939H25.6871H25.6803H25.6736H25.6668H25.66H25.6532H25.6465H25.6397H25.6329H25.6261H25.6194H25.6126H25.6058H25.5991H25.5923H25.5855H25.5787H25.572H25.5652H25.5584H25.5516H25.5449H25.5381H25.5313H25.5245H25.5178H25.511H25.5042H25.4974H25.4907H25.4839H25.4771H25.4704H25.4636H25.4568H25.45H25.4433H25.4365H25.4297H25.4229H25.4162H25.4094H25.4026H25.3959H25.3891H25.3823H25.3755H25.3688H25.362H25.3552H25.3484H25.3417H25.3349H25.3281H25.3214H25.3146H25.3078H25.301H25.2943H25.2875H25.2807H25.2739H25.2672H25.2604H25.2327L25.2057 0.756049C25.1582 0.766709 25.1068 0.780125 25.0611 0.792053C25.0407 0.797376 25.0215 0.802403 25.0042 0.806756C24.9423 0.822378 24.8903 0.833606 24.8424 0.838953L24.8394 0.839332C24.4869 0.883208 24.1294 0.922094 23.7695 0.961235C22.952 1.05014 22.1224 1.14037 21.313 1.29338L28.7574 0.75ZM40.5237 38.6976L40.524 38.6974C42.9591 36.8086 45.2662 34.7841 47.1545 32.3319C50.8862 27.4484 51.6094 22.1521 49.2601 16.4809L49.26 16.4809C47.565 12.3875 44.6161 9.36691 40.8407 7.17507L40.8405 7.17494C34.0681 3.23352 26.8555 2.4814 19.3444 4.51928C14.3897 5.87663 10.149 8.44254 7.00857 12.5879L7.00856 12.5879C3.49997 17.2188 2.45013 22.3653 4.23004 27.965C5.65287 32.4413 8.62624 35.6897 12.5886 38.0985C16.1473 40.2601 20.0535 41.3441 24.1714 41.7347L24.1721 41.7348C24.6405 41.7805 25.0185 41.8992 25.2695 42.1791C25.52 42.4584 25.5971 42.8459 25.5971 43.3094L40.5237 38.6976ZM40.5237 38.6976C36.4619 41.8592 32.3807 45.001 28.3034 48.1398C27.4213 48.8189 26.5394 49.4978 25.6579 50.1767M40.5237 38.6976L25.6579 50.1767M25.6579 50.1767C25.6407 50.1897 25.6236 50.2021 25.606 50.2143C25.6039 50.1657 25.601 50.119 25.5971 50.0732V50.0709V50.0577V50.0445V50.0312V50.018V50.0048V49.9915V49.9783V49.9651V49.9518V49.9386V49.9254V49.9122V49.8989V49.8857V49.8725V49.8592V49.846V49.8328V49.8195V49.8063V49.7931V49.7798V49.7666V49.7534V49.7401V49.7269V49.7137V49.7004V49.6872V49.674V49.6607V49.6475V49.6343V49.6211V49.6078V49.5946V49.5814V49.5681V49.5549V49.5417V49.5284V49.5152V49.502V49.4887V49.4755V49.4623V49.449V49.4358V49.4226V49.4093V49.3961V49.3829V49.3696V49.3564V49.3432V49.3299V49.3167V49.3035V49.2903V49.277V49.2638V49.2506V49.2373V49.2241V49.2109V49.1976V49.1844V49.1712V49.1579V49.1447V49.1315V49.1182V49.105V49.0918V49.0785V49.0653V49.0521V49.0388V49.0256V49.0124V48.9991V48.9859V48.9727V48.9595V48.9462V48.933V48.9198V48.9065V48.8933V48.8801V48.8668V48.8536V48.8404V48.8271V48.8139V48.8007V48.7874V48.7742V48.761V48.7477V48.7345V48.7213V48.708V48.6948V48.6816V48.6684V48.6551V48.6419V48.6287V48.6154V48.6022V48.589V48.5757V48.5625V48.5493V48.536V48.5228V48.5096V48.4963V48.4831V48.4699V48.4566V48.4434V48.4302V48.4169V48.4037V48.3905V48.3773V48.364V48.3508V48.3376V48.3243V48.3111V48.2979V48.2846V48.2714V48.2582V48.2449V48.2317V48.2185V48.2052V48.192V48.1788V48.1655V48.1523V48.1391V48.1258V48.1126V48.0994V48.0861V48.0729V48.0597V48.0465V48.0332V48.02V48.0068V47.9935V47.9803V47.9671V47.9538V47.9406V47.9274V47.9141V47.9009V47.8877V47.8744V47.8612V47.848V47.8347V47.8215V47.8083V47.795V47.7818V47.7686V47.7553V47.7421V47.7289V47.7157V47.7024V47.6892V47.676V47.6627V47.6495V47.6363V47.623V47.6098V47.5966V47.5833V47.5701V47.5569V47.5436V47.5304V47.5172V47.5039V47.4907V47.4775V47.4642V47.451V47.4378V47.4245V47.4113V47.3981V47.3849V47.3716V47.3584V47.3452V47.3319V47.3187V47.3055V47.2922V47.279V47.2658V47.2525V47.2393V47.2261V47.2128V47.1996V47.1864V47.1731V47.1599V47.1467V47.1334V47.1202V47.107V47.0938V47.0805V47.0673V47.0541V47.0408V47.0276V47.0144V47.0011V46.9879V46.9747V46.9614V46.9482V46.935V46.9217V46.9085V46.8953V46.882V46.8688V46.8556V46.8423V46.8291V46.8159V46.8027V46.7894V46.7762V46.763V46.7497V46.7365V46.7233V46.71V46.6968V46.6836V46.6703V46.6571V46.6439V46.6306V46.6174V46.6042V46.5909V46.5777V46.5645V46.5512V46.538V46.5248V46.5115V46.4983V46.4851V46.4719V46.4586V46.4454V46.4322V46.4189V46.4057V46.3925V46.3792V46.366V46.3528L25.6579 50.1767Z" fill="#464646" stroke="#464646" stroke-width="0.5"/>
<path d="M26.7105 22.573C26.7105 24.0707 26.7105 25.5684 26.7105 27.066C26.7105 27.3247 26.6833 27.5834 26.588 27.8149C26.4246 28.2506 26.1115 28.5093 25.6213 28.4684C25.1448 28.4412 24.8044 28.1961 24.6546 27.7332C24.6138 27.597 24.5866 27.4473 24.5866 27.3111C24.5866 24.6017 24.5729 21.8923 24.5866 19.1828C24.5866 18.5429 24.9269 18.1345 25.4852 18.0256C26.0025 17.9302 26.3429 18.2162 26.6288 18.5974C27.5138 19.7411 28.3988 20.8984 29.2838 22.042C29.8284 22.7364 30.3594 23.4308 30.904 24.1388C30.9585 24.1252 30.9993 24.1115 31.0538 24.1115C31.0538 23.8801 31.0538 23.6622 31.0538 23.4308C31.0538 22.1373 31.0538 20.8575 31.0538 19.5641C31.0538 19.4143 31.0538 19.2782 31.0538 19.1284C31.1082 18.434 31.4895 18.0256 32.0885 18.0256C32.7012 18.0256 33.0824 18.4204 33.0961 19.142C33.1233 20.8711 33.1097 22.5866 33.1097 24.3158C33.1097 25.3097 33.1097 26.3172 33.1097 27.3111C33.1097 27.7332 32.9871 28.1008 32.5787 28.3323C32.0749 28.6182 31.5848 28.5093 31.1491 27.951C30.2777 26.8482 29.4336 25.7454 28.5622 24.6289C28.1129 24.0571 27.6772 23.4716 27.2279 22.9134C27.1054 22.7636 26.942 22.6411 26.7922 22.505C26.7786 22.5322 26.7378 22.5594 26.7105 22.573Z" fill="#464646"/>
<path d="M37.0853 24.384C37.0853 25.0511 37.0853 25.6774 37.0853 26.3854C37.2759 26.3854 37.4529 26.3854 37.6435 26.3854C38.5421 26.399 39.4407 26.3854 40.3529 26.4262C41.0609 26.4535 41.4285 26.8075 41.4422 27.4065C41.4694 28.0464 41.129 28.4549 40.4074 28.4821C38.9642 28.523 37.5074 28.5366 36.0641 28.4957C35.2881 28.4821 34.9477 28.0737 34.9341 27.284C34.9205 25.7999 34.9205 24.3159 34.9205 22.8454C34.9205 21.6881 34.9205 20.5308 34.9341 19.3599C34.9477 18.4069 35.3017 18.0529 36.2684 18.0393C37.6435 18.0256 39.005 18.0256 40.3802 18.0393C41.0609 18.0393 41.4558 18.4205 41.483 19.0604C41.5102 19.6186 41.1562 20.0271 40.4891 20.0679C39.5224 20.1224 38.5557 20.136 37.5891 20.136C37.1942 20.136 37.0717 20.2722 37.0444 20.6534C36.9219 22.0966 36.99 22.1783 38.4196 22.1919C39.0459 22.2055 39.6722 22.1783 40.2985 22.2055C40.952 22.2327 41.3332 22.5187 41.4285 22.9952C41.5783 23.7304 41.1699 24.2614 40.3938 24.3023C39.536 24.3431 38.6919 24.3159 37.8341 24.3295C37.5754 24.3295 37.344 24.3567 37.0853 24.384Z" fill="#464646"/>
<path d="M15.1104 26.3853C16.0634 26.3853 16.962 26.3853 17.8606 26.3853C18.1193 26.3853 18.378 26.3853 18.6367 26.4261C19.1813 26.5214 19.5489 26.9707 19.5489 27.4609C19.5353 27.9646 19.1541 28.4412 18.6095 28.4548C17.0437 28.4956 15.4916 28.482 13.9258 28.4548C13.4357 28.4412 13.1362 28.1144 13.0545 27.6242C13.0136 27.4064 13 27.1749 13 26.9571C13 24.52 13 22.0965 13 19.6594C13 19.3734 13.0272 19.0739 13.0817 18.8016C13.1906 18.3114 13.5446 18.0528 14.0075 18.0391C14.4704 18.0255 14.8653 18.257 15.0014 18.7335C15.0831 19.0331 15.1104 19.3734 15.1104 19.6866C15.1104 21.8786 15.1104 24.0843 15.1104 26.3853Z" fill="#464646"/>
<path d="M22.803 23.2674C22.803 24.6289 22.8166 26.0041 22.803 27.3656C22.7894 28.305 22.3673 28.6318 21.4414 28.482C21.0875 28.4276 20.856 28.237 20.7879 27.883C20.7607 27.6924 20.7335 27.5017 20.7335 27.3111C20.7335 24.6017 20.7335 21.9059 20.7335 19.1965C20.7335 18.2162 21.1419 17.8758 22.095 18.0392C22.4898 18.1073 22.7349 18.3115 22.7757 18.7336C22.7894 18.9378 22.8166 19.1556 22.8166 19.3599C22.803 20.6669 22.803 21.9604 22.803 23.2674Z" fill="#464646"/>
</svg>
